<svg xmlns="http://www.w3.org/2000/svg" xmlns:xlink="http://www.w3.org/1999/xlink" width="500" zoomAndPan="magnify" viewBox="0 0 375 374.999991" height="500" preserveAspectRatio="xMidYMid meet" version="1.0"><defs><g/><clipPath id="6497db556f"><path d="M 35.648438 36.082031 L 337.691406 36.082031 L 337.691406 338.128906 L 35.648438 338.128906 Z M 35.648438 36.082031 " clip-rule="nonzero"/></clipPath><clipPath id="b893c3109d"><path d="M 186.667969 36.082031 C 103.261719 36.082031 35.648438 103.699219 35.648438 187.105469 C 35.648438 270.511719 103.261719 338.128906 186.667969 338.128906 C 270.078125 338.128906 337.691406 270.511719 337.691406 187.105469 C 337.691406 103.699219 270.078125 36.082031 186.667969 36.082031 Z M 186.667969 36.082031 " clip-rule="nonzero"/></clipPath><clipPath id="6d24d3a119"><path d="M 192 105.007812 L 208 105.007812 L 208 139 L 192 139 Z M 192 105.007812 " clip-rule="nonzero"/></clipPath><clipPath id="92ab80695c"><path d="M 232 176 L 263.851562 176 L 263.851562 191 L 232 191 Z M 232 176 " clip-rule="nonzero"/></clipPath><clipPath id="ad83d27dfa"><path d="M 110.851562 150 L 142 150 L 142 167 L 110.851562 167 Z M 110.851562 150 " clip-rule="nonzero"/></clipPath><clipPath id="19328c3428"><path d="M 90.476562 84.492188 L 284.726562 84.492188 L 284.726562 278.742188 L 90.476562 278.742188 Z M 90.476562 84.492188 " clip-rule="nonzero"/></clipPath><clipPath id="f16c1e1368"><path d="M 27.320312 27.320312 L 347.570312 27.320312 L 347.570312 347.570312 L 27.320312 347.570312 Z M 27.320312 27.320312 " clip-rule="nonzero"/></clipPath></defs><g clip-path="url(#6497db556f)"><g clip-path="url(#b893c3109d)"><path fill="#000000" d="M 35.648438 36.082031 L 337.691406 36.082031 L 337.691406 338.128906 L 35.648438 338.128906 Z M 35.648438 36.082031 " fill-opacity="1" fill-rule="nonzero"/></g></g><g fill="#ffffff" fill-opacity="1"><g transform="translate(83.500077, 152.814141)"><g><path d="M -16.964844 -21.734375 L -15.511719 -25.382812 C -15.367188 -25.75 -15.109375 -25.863281 -14.738281 -25.714844 L 6.265625 -17.355469 C 6.632812 -17.210938 6.746094 -16.953125 6.597656 -16.582031 L 5.574219 -14.011719 C 5.429688 -13.644531 5.171875 -13.535156 4.804688 -13.679688 L -7.632812 -18.628906 L -7.710938 -18.4375 L 3.691406 -10.730469 C 3.996094 -10.523438 4.082031 -10.253906 3.949219 -9.921875 L 3.410156 -8.566406 C 3.285156 -8.253906 3.039062 -8.117188 2.671875 -8.15625 L -10.910156 -10.394531 L -10.988281 -10.199219 L 1.449219 -5.25 C 1.816406 -5.105469 1.929688 -4.847656 1.78125 -4.476562 L 0.769531 -1.933594 C 0.625 -1.566406 0.367188 -1.457031 -0.00390625 -1.601562 L -21.007812 -9.960938 C -21.378906 -10.105469 -21.488281 -10.363281 -21.34375 -10.734375 L -19.890625 -14.382812 C -19.757812 -14.714844 -19.511719 -14.851562 -19.152344 -14.792969 L -4.164062 -12.382812 L -16.710938 -20.929688 C -17.003906 -21.152344 -17.089844 -21.421875 -16.964844 -21.734375 Z M -16.964844 -21.734375 "/></g></g></g><g fill="#ffffff" fill-opacity="1"><g transform="translate(91.641817, 133.135776)"><g><path d="M -13.765625 -22.894531 L -12.191406 -25.417969 C -12.074219 -25.605469 -11.941406 -25.707031 -11.785156 -25.726562 C -11.632812 -25.75 -11.492188 -25.660156 -11.359375 -25.460938 L -3.007812 -13.835938 L 4.863281 -8.921875 C 5.203125 -8.710938 5.265625 -8.4375 5.054688 -8.101562 L 3.542969 -5.679688 C 3.332031 -5.34375 3.058594 -5.277344 2.722656 -5.488281 L -5.152344 -10.402344 L -19.261719 -12.789062 C -19.488281 -12.839844 -19.628906 -12.933594 -19.683594 -13.070312 C -19.738281 -13.210938 -19.707031 -13.371094 -19.589844 -13.558594 L -18.015625 -16.082031 C -17.839844 -16.367188 -17.582031 -16.476562 -17.25 -16.410156 L -8.242188 -14.714844 L -13.722656 -22.0625 C -13.929688 -22.332031 -13.945312 -22.609375 -13.765625 -22.894531 Z M -13.765625 -22.894531 "/></g></g></g><g fill="#ffffff" fill-opacity="1"><g transform="translate(101.567704, 117.975549)"><g/></g></g><g fill="#ffffff" fill-opacity="1"><g transform="translate(107.354408, 110.635152)"><g><path d="M -7.59375 -25.613281 L -5.4375 -27.660156 C -5.28125 -27.8125 -5.125 -27.878906 -4.96875 -27.859375 C -4.816406 -27.839844 -4.699219 -27.71875 -4.621094 -27.492188 L 0.550781 -14.148438 L 6.945312 -7.417969 C 7.21875 -7.132812 7.210938 -6.851562 6.921875 -6.578125 L 4.851562 -4.609375 C 4.566406 -4.335938 4.285156 -4.34375 4.011719 -4.632812 L -2.382812 -11.359375 L -15.445312 -17.207031 C -15.65625 -17.308594 -15.765625 -17.4375 -15.785156 -17.582031 C -15.800781 -17.730469 -15.730469 -17.878906 -15.574219 -18.03125 L -13.417969 -20.078125 C -13.171875 -20.3125 -12.898438 -20.355469 -12.59375 -20.207031 L -4.296875 -16.3125 L -7.761719 -24.796875 C -7.894531 -25.109375 -7.839844 -25.378906 -7.59375 -25.613281 Z M -7.59375 -25.613281 "/></g></g></g><g fill="#ffffff" fill-opacity="1"><g transform="translate(120.3986, 98.489536)"><g><path d="M -2.203125 -26.785156 L -0.515625 -24.332031 C -0.324219 -24.054688 -0.359375 -23.828125 -0.621094 -23.648438 L -6.75 -19.433594 L -3.382812 -14.53125 L 1.300781 -17.75 C 1.5625 -17.929688 1.789062 -17.882812 1.980469 -17.601562 L 3.648438 -15.175781 C 3.839844 -14.898438 3.804688 -14.667969 3.542969 -14.488281 L -1.140625 -11.273438 L 2.261719 -6.320312 L 8.390625 -10.53125 C 8.652344 -10.710938 8.875 -10.671875 9.054688 -10.410156 L 10.738281 -7.957031 C 10.917969 -7.695312 10.875 -7.476562 10.617188 -7.296875 L 1.59375 -1.09375 C 1.347656 -0.925781 1.136719 -0.972656 0.957031 -1.234375 L -11.984375 -20.0625 C -12.164062 -20.324219 -12.128906 -20.539062 -11.886719 -20.707031 L -2.863281 -26.910156 C -2.601562 -27.089844 -2.382812 -27.046875 -2.203125 -26.785156 Z M -2.203125 -26.785156 "/></g></g></g><g fill="#ffffff" fill-opacity="1"><g transform="translate(134.069496, 89.255287)"><g><path d="M 3.265625 -5.945312 L -5.195312 -23.398438 C -5.332031 -23.683594 -5.546875 -23.757812 -5.832031 -23.621094 L -8.613281 -22.269531 C -8.898438 -22.132812 -8.972656 -21.921875 -8.835938 -21.636719 L 1.128906 -1.078125 C 1.269531 -0.792969 1.480469 -0.71875 1.765625 -0.855469 L 11.347656 -5.503906 C 11.636719 -5.640625 11.707031 -5.851562 11.570312 -6.136719 L 10.273438 -8.816406 C 10.132812 -9.101562 9.921875 -9.175781 9.636719 -9.035156 Z M 3.265625 -5.945312 "/></g></g></g><g fill="#ffffff" fill-opacity="1"><g transform="translate(148.737405, 82.282415)"><g><path d="M 4.117188 -5.394531 L -1.648438 -23.914062 C -1.742188 -24.214844 -1.941406 -24.320312 -2.246094 -24.226562 L -5.199219 -23.304688 C -5.503906 -23.210938 -5.605469 -23.011719 -5.511719 -22.710938 L 1.277344 -0.898438 C 1.371094 -0.59375 1.570312 -0.488281 1.875 -0.582031 L 12.042969 -3.75 C 12.347656 -3.84375 12.449219 -4.042969 12.355469 -4.34375 L 11.472656 -7.183594 C 11.378906 -7.488281 11.179688 -7.59375 10.875 -7.5 Z M 4.117188 -5.394531 "/></g></g></g><g fill="#ffffff" fill-opacity="1"><g transform="translate(164.26661, 77.566692)"><g><path d="M 0.828125 -4.457031 L -1.464844 -19.515625 C -1.675781 -20.90625 -1.472656 -22.015625 -0.855469 -22.84375 C -0.242188 -23.667969 0.753906 -24.1875 2.125 -24.394531 L 5.421875 -24.894531 C 6.8125 -25.109375 7.921875 -24.910156 8.746094 -24.304688 C 9.570312 -23.695312 10.085938 -22.699219 10.300781 -21.304688 L 12.589844 -6.25 C 12.796875 -4.875 12.601562 -3.773438 11.996094 -2.9375 C 11.390625 -2.105469 10.390625 -1.582031 9 -1.367188 L 5.707031 -0.867188 C 4.332031 -0.660156 3.230469 -0.863281 2.394531 -1.476562 C 1.558594 -2.09375 1.035156 -3.085938 0.828125 -4.457031 Z M 5.980469 -4.792969 L 7.6875 -5.050781 C 8.472656 -5.171875 8.804688 -5.621094 8.683594 -6.40625 L 6.617188 -19.992188 C 6.496094 -20.777344 6.046875 -21.109375 5.261719 -20.992188 L 3.554688 -20.730469 C 2.773438 -20.613281 2.441406 -20.160156 2.558594 -19.375 L 4.625 -5.789062 C 4.746094 -5.003906 5.195312 -4.671875 5.980469 -4.792969 Z M 5.980469 -4.792969 "/></g></g></g><g fill="#ffffff" fill-opacity="1"><g transform="translate(180.280408, 74.893006)"><g><path d="M 18.554688 -23.183594 L 21.378906 -23.089844 C 21.792969 -23.074219 21.976562 -22.859375 21.921875 -22.445312 L 18.601562 0.0625 C 18.566406 0.441406 18.355469 0.621094 17.957031 0.609375 L 15.042969 0.507812 C 14.707031 0.496094 14.496094 0.3125 14.40625 -0.046875 L 11.769531 -13.589844 L 8.191406 -0.230469 C 8.082031 0.105469 7.859375 0.265625 7.523438 0.253906 L 4.546875 0.152344 C 4.152344 0.140625 3.949219 -0.0546875 3.945312 -0.433594 L 2.269531 -23.109375 C 2.246094 -23.527344 2.441406 -23.730469 2.855469 -23.714844 L 5.679688 -23.621094 C 6.058594 -23.605469 6.257812 -23.410156 6.285156 -23.035156 L 6.972656 -9.082031 L 7.125 -9.074219 L 10.539062 -22.917969 C 10.648438 -23.273438 10.875 -23.445312 11.210938 -23.433594 L 12.996094 -23.371094 C 13.351562 -23.359375 13.5625 -23.175781 13.628906 -22.816406 L 16.070312 -8.773438 L 16.21875 -8.765625 L 17.910156 -22.640625 C 17.960938 -23.015625 18.175781 -23.195312 18.554688 -23.183594 Z M 18.554688 -23.183594 "/></g></g></g><g fill="#ffffff" fill-opacity="1"><g transform="translate(204.461289, 76.417235)"><g/></g></g><g fill="#ffffff" fill-opacity="1"><g transform="translate(213.716613, 78.061715)"><g><path d="M 1.5625 -0.00390625 L 8.488281 -21.773438 C 8.585938 -22.074219 8.785156 -22.179688 9.085938 -22.082031 L 15.890625 -19.917969 C 17.230469 -19.492188 18.136719 -18.820312 18.609375 -17.914062 C 19.078125 -17.003906 19.101562 -15.878906 18.671875 -14.535156 L 16.472656 -7.621094 C 16.050781 -6.296875 15.386719 -5.394531 14.472656 -4.914062 C 13.558594 -4.4375 12.433594 -4.410156 11.089844 -4.835938 L 7.691406 -5.917969 L 5.417969 1.222656 C 5.320312 1.527344 5.121094 1.628906 4.820312 1.535156 L 1.871094 0.59375 C 1.570312 0.5 1.464844 0.300781 1.5625 -0.00390625 Z M 8.878906 -9.660156 L 11.375 -8.867188 C 12.132812 -8.625 12.628906 -8.882812 12.871094 -9.640625 L 14.566406 -14.96875 C 14.804688 -15.726562 14.546875 -16.222656 13.792969 -16.464844 L 11.296875 -17.257812 Z M 8.878906 -9.660156 "/></g></g></g><g fill="#ffffff" fill-opacity="1"><g transform="translate(229.406535, 83.173529)"><g><path d="M 20.96875 -11.363281 L 17.738281 -4.867188 C 16.851562 -3.089844 15.621094 -2.242188 14.042969 -2.316406 L 12.410156 5.574219 C 12.339844 5.9375 12.136719 6.035156 11.800781 5.867188 L 9.027344 4.492188 C 8.78125 4.367188 8.691406 4.167969 8.761719 3.894531 L 10.34375 -3.761719 L 8.503906 -4.675781 L 5.167969 2.039062 C 5.023438 2.320312 4.8125 2.394531 4.527344 2.253906 L 1.757812 0.875 C 1.472656 0.734375 1.402344 0.519531 1.542969 0.234375 L 11.71875 -20.21875 C 11.859375 -20.503906 12.070312 -20.574219 12.355469 -20.433594 L 19.042969 -17.109375 C 20.300781 -16.480469 21.09375 -15.683594 21.421875 -14.710938 C 21.746094 -13.742188 21.597656 -12.625 20.96875 -11.363281 Z M 10.253906 -8.191406 L 12.890625 -6.878906 C 13.601562 -6.523438 14.132812 -6.703125 14.484375 -7.414062 L 16.976562 -12.421875 C 17.328125 -13.132812 17.152344 -13.664062 16.441406 -14.015625 L 13.804688 -15.328125 Z M 10.253906 -8.191406 "/></g></g></g><g fill="#ffffff" fill-opacity="1"><g transform="translate(244.411907, 90.787238)"><g><path d="M 3.6875 -2.640625 L 12.472656 -15.082031 C 13.285156 -16.230469 14.203125 -16.890625 15.21875 -17.058594 C 16.234375 -17.226562 17.3125 -16.910156 18.445312 -16.105469 L 21.164062 -14.183594 C 22.316406 -13.371094 22.976562 -12.460938 23.152344 -11.453125 C 23.324219 -10.445312 23.003906 -9.363281 22.191406 -8.214844 L 13.40625 4.226562 C 12.605469 5.359375 11.695312 6.015625 10.679688 6.199219 C 9.667969 6.378906 8.585938 6.066406 7.433594 5.253906 L 4.714844 3.328125 C 3.578125 2.527344 2.925781 1.617188 2.75 0.59375 C 2.574219 -0.429688 2.886719 -1.507812 3.6875 -2.640625 Z M 7.632812 0.691406 L 9.042969 1.6875 C 9.6875 2.144531 10.242188 2.050781 10.699219 1.402344 L 18.628906 -9.820312 C 19.085938 -10.46875 18.992188 -11.023438 18.34375 -11.480469 L 16.933594 -12.476562 C 16.285156 -12.933594 15.734375 -12.839844 15.277344 -12.191406 L 7.347656 -0.964844 C 6.890625 -0.316406 6.984375 0.234375 7.632812 0.691406 Z M 7.632812 0.691406 "/></g></g></g><g fill="#ffffff" fill-opacity="1"><g transform="translate(257.827979, 100.416449)"><g><path d="M 10.277344 2.800781 L 22.910156 -10.308594 C 23.132812 -10.535156 23.355469 -10.539062 23.585938 -10.320312 L 25.8125 -8.171875 C 26.039062 -7.953125 26.042969 -7.726562 25.824219 -7.5 L 12.609375 6.207031 C 11.648438 7.207031 10.644531 7.714844 9.609375 7.734375 C 8.570312 7.753906 7.550781 7.28125 6.554688 6.316406 L 4.15625 4.003906 C 3.15625 3.042969 2.644531 2.042969 2.628906 1.003906 C 2.609375 -0.0351562 3.082031 -1.050781 4.042969 -2.050781 L 6.191406 -4.277344 C 6.410156 -4.507812 6.636719 -4.511719 6.863281 -4.289062 L 9.003906 -2.226562 C 9.234375 -2.007812 9.238281 -1.78125 9.019531 -1.554688 L 7.449219 0.0742188 C 6.898438 0.644531 6.910156 1.207031 7.480469 1.757812 L 8.59375 2.832031 C 9.164062 3.382812 9.726562 3.371094 10.277344 2.800781 Z M 10.277344 2.800781 "/></g></g></g><g fill="#ffffff" fill-opacity="1"><g transform="translate(269.630168, 111.968992)"><g><path d="M 26.644531 -3.527344 L 24.277344 -1.722656 C 24.011719 -1.519531 23.78125 -1.542969 23.585938 -1.792969 L 19.078125 -7.707031 L 14.347656 -4.097656 L 17.792969 0.417969 C 17.984375 0.671875 17.949219 0.898438 17.679688 1.105469 L 15.339844 2.890625 C 15.070312 3.09375 14.839844 3.070312 14.648438 2.820312 L 11.203125 -1.699219 L 6.421875 1.945312 L 10.933594 7.859375 C 11.128906 8.113281 11.097656 8.332031 10.84375 8.527344 L 8.480469 10.332031 C 8.226562 10.523438 8.003906 10.492188 7.8125 10.242188 L 1.171875 1.539062 C 0.992188 1.300781 1.027344 1.085938 1.28125 0.894531 L 19.445312 -12.964844 C 19.695312 -13.15625 19.914062 -13.132812 20.09375 -12.898438 L 26.734375 -4.195312 C 26.925781 -3.941406 26.894531 -3.71875 26.644531 -3.527344 Z M 26.644531 -3.527344 "/></g></g></g><g fill="#ffffff" fill-opacity="1"><g transform="translate(279.527979, 125.154606)"><g><path d="M 23.554688 2.425781 L 20.738281 3.964844 C 20.457031 4.117188 20.242188 4.054688 20.089844 3.777344 L 18.664062 1.164062 C 18.511719 0.886719 18.578125 0.671875 18.855469 0.519531 L 20.945312 -0.621094 C 21.640625 -1 21.796875 -1.539062 21.417969 -2.234375 L 20.675781 -3.59375 C 20.296875 -4.289062 19.757812 -4.445312 19.0625 -4.066406 L 7.15625 2.429688 C 6.460938 2.8125 6.300781 3.351562 6.683594 4.046875 L 7.421875 5.402344 C 7.804688 6.101562 8.339844 6.257812 9.039062 5.878906 L 11.125 4.738281 C 11.40625 4.585938 11.621094 4.648438 11.773438 4.929688 L 13.195312 7.539062 C 13.347656 7.816406 13.285156 8.03125 13.007812 8.183594 L 10.1875 9.722656 C 8.96875 10.390625 7.863281 10.574219 6.867188 10.28125 C 5.871094 9.992188 5.039062 9.234375 4.375 8.015625 L 2.777344 5.089844 C 2.113281 3.875 1.925781 2.761719 2.214844 1.757812 C 2.5 0.753906 3.253906 -0.0820312 4.472656 -0.746094 L 17.839844 -8.042969 C 19.078125 -8.71875 20.191406 -8.902344 21.183594 -8.597656 C 22.175781 -8.289062 23.003906 -7.527344 23.667969 -6.308594 L 25.265625 -3.386719 C 25.929688 -2.167969 26.121094 -1.0625 25.835938 -0.0703125 C 25.550781 0.921875 24.792969 1.753906 23.554688 2.425781 Z M 23.554688 2.425781 "/></g></g></g><g fill="#ffffff" fill-opacity="1"><g transform="translate(287.328366, 139.792601)"><g><path d="M 22.808594 -6.929688 L 26.585938 3.34375 C 26.695312 3.644531 26.601562 3.847656 26.304688 3.957031 L 23.511719 4.984375 C 23.214844 5.09375 23.011719 4.996094 22.902344 4.699219 L 21.710938 1.460938 L 3.507812 8.15625 C 3.207031 8.265625 3.003906 8.171875 2.894531 7.875 L 1.828125 4.96875 C 1.71875 4.671875 1.8125 4.46875 2.109375 4.359375 L 20.3125 -2.335938 L 19.121094 -5.574219 C 19.011719 -5.871094 19.105469 -6.074219 19.40625 -6.183594 L 22.195312 -7.210938 C 22.496094 -7.320312 22.699219 -7.226562 22.808594 -6.929688 Z M 22.808594 -6.929688 "/></g></g></g><g fill="#ffffff" fill-opacity="1"><g transform="translate(63.138003, 215.161076)"><g><path d="M 0.910156 3.316406 C 0.847656 3.09375 0.867188 2.90625 0.964844 2.75 C 1.0625 2.59375 1.210938 2.488281 1.410156 2.433594 L 21.09375 -2.960938 C 21.316406 -3.019531 21.507812 -3.007812 21.671875 -2.921875 C 21.835938 -2.839844 21.945312 -2.683594 22.007812 -2.464844 L 24.105469 5.191406 C 24.511719 6.679688 24.625 8.035156 24.441406 9.261719 C 24.257812 10.488281 23.773438 11.535156 22.984375 12.398438 C 22.195312 13.265625 21.085938 13.890625 19.660156 14.28125 C 18.234375 14.671875 16.964844 14.695312 15.855469 14.351562 C 14.746094 14.007812 13.800781 13.355469 13.019531 12.390625 C 12.234375 11.429688 11.640625 10.203125 11.234375 8.71875 L 9.773438 3.382812 L 2.238281 5.445312 C 2.035156 5.5 1.851562 5.480469 1.6875 5.386719 C 1.519531 5.292969 1.40625 5.132812 1.347656 4.914062 Z M 12.296875 2.660156 L 13.722656 7.871094 C 14.132812 9.359375 14.769531 10.382812 15.636719 10.945312 C 16.503906 11.507812 17.570312 11.617188 18.835938 11.269531 C 20.082031 10.925781 20.945312 10.300781 21.429688 9.390625 C 21.914062 8.480469 21.949219 7.261719 21.53125 5.734375 L 20.101562 0.519531 Z M 12.296875 2.660156 "/></g></g></g><g fill="#ffffff" fill-opacity="1"><g transform="translate(73.07572, 245.887036)"><g><path d="M 1.742188 2.964844 C 1.625 2.765625 1.59375 2.578125 1.648438 2.402344 C 1.703125 2.226562 1.816406 2.085938 1.996094 1.980469 L 19.589844 -8.359375 C 19.789062 -8.476562 19.976562 -8.515625 20.15625 -8.476562 C 20.335938 -8.4375 20.484375 -8.320312 20.601562 -8.121094 L 21.410156 -6.746094 C 21.523438 -6.550781 21.558594 -6.359375 21.511719 -6.171875 C 21.460938 -5.988281 21.339844 -5.835938 21.140625 -5.71875 L 13.707031 -1.351562 L 19.152344 7.917969 L 26.589844 3.546875 C 26.789062 3.429688 26.980469 3.398438 27.164062 3.445312 C 27.351562 3.492188 27.496094 3.609375 27.601562 3.785156 L 28.410156 5.160156 C 28.523438 5.359375 28.558594 5.550781 28.511719 5.734375 C 28.460938 5.921875 28.339844 6.070312 28.140625 6.1875 L 10.546875 16.527344 C 10.367188 16.632812 10.1875 16.664062 10 16.613281 C 9.816406 16.566406 9.664062 16.445312 9.550781 16.246094 L 8.742188 14.871094 C 8.636719 14.691406 8.605469 14.511719 8.65625 14.324219 C 8.703125 14.140625 8.816406 13.992188 8.996094 13.886719 L 16.730469 9.34375 L 11.28125 0.0742188 L 3.550781 4.621094 C 3.371094 4.726562 3.1875 4.753906 3 4.707031 C 2.816406 4.65625 2.664062 4.535156 2.550781 4.335938 Z M 1.742188 2.964844 "/></g></g></g><g fill="#ffffff" fill-opacity="1"><g transform="translate(92.059555, 274.772895)"><g><path d="M 7.382812 7.605469 C 6.097656 6.355469 5.210938 5.070312 4.730469 3.742188 C 4.246094 2.417969 4.203125 1.054688 4.601562 -0.34375 C 5.003906 -1.742188 5.847656 -3.164062 7.136719 -4.613281 C 7.761719 -5.285156 8.367188 -5.925781 8.953125 -6.527344 C 9.542969 -7.132812 10.164062 -7.757812 10.816406 -8.402344 C 12.210938 -9.71875 13.613281 -10.585938 15.023438 -11.003906 C 16.429688 -11.421875 17.816406 -11.414062 19.175781 -10.976562 C 20.539062 -10.539062 21.832031 -9.726562 23.058594 -8.535156 C 24.269531 -7.359375 25.113281 -6.097656 25.589844 -4.75 C 26.066406 -3.402344 26.117188 -2.015625 25.75 -0.585938 C 25.378906 0.839844 24.550781 2.261719 23.257812 3.683594 C 22.652344 4.367188 22.050781 5.015625 21.464844 5.621094 C 20.875 6.226562 20.25 6.84375 19.578125 7.46875 C 18.183594 8.816406 16.792969 9.707031 15.398438 10.140625 C 14.003906 10.574219 12.636719 10.566406 11.296875 10.121094 C 9.957031 9.679688 8.652344 8.839844 7.382812 7.605469 Z M 9.234375 5.699219 C 10.367188 6.800781 11.632812 7.363281 13.027344 7.378906 C 14.417969 7.394531 15.890625 6.664062 17.445312 5.179688 C 18.128906 4.539062 18.730469 3.949219 19.246094 3.421875 C 19.757812 2.890625 20.320312 2.28125 20.929688 1.59375 C 21.902344 0.535156 22.523438 -0.488281 22.796875 -1.472656 C 23.070312 -2.457031 23.058594 -3.378906 22.765625 -4.246094 C 22.476562 -5.109375 21.953125 -5.90625 21.207031 -6.632812 C 20.460938 -7.355469 19.648438 -7.851562 18.777344 -8.121094 C 17.902344 -8.386719 16.980469 -8.371094 16.003906 -8.070312 C 15.027344 -7.765625 14.019531 -7.121094 12.972656 -6.136719 C 12.316406 -5.492188 11.734375 -4.90625 11.21875 -4.375 C 10.703125 -3.84375 10.125 -3.234375 9.488281 -2.546875 C 8.050781 -0.949219 7.367188 0.546875 7.433594 1.945312 C 7.496094 3.34375 8.097656 4.597656 9.234375 5.699219 Z M 9.234375 5.699219 "/></g></g></g><g fill="#ffffff" fill-opacity="1"><g transform="translate(117.049588, 296.662979)"><g><path d="M 7.132812 4.085938 C 6.953125 3.980469 6.835938 3.835938 6.785156 3.652344 C 6.734375 3.46875 6.761719 3.285156 6.867188 3.105469 L 15.996094 -12.84375 L 10.792969 -15.824219 C 10.609375 -15.925781 10.496094 -16.070312 10.445312 -16.257812 C 10.394531 -16.441406 10.421875 -16.625 10.523438 -16.804688 L 11.175781 -17.945312 C 11.289062 -18.144531 11.441406 -18.265625 11.625 -18.316406 C 11.808594 -18.367188 11.992188 -18.339844 12.171875 -18.238281 L 25.246094 -10.75 C 25.445312 -10.636719 25.566406 -10.488281 25.617188 -10.304688 C 25.667969 -10.117188 25.636719 -9.925781 25.523438 -9.726562 L 24.871094 -8.589844 C 24.765625 -8.410156 24.621094 -8.292969 24.4375 -8.242188 C 24.253906 -8.191406 24.0625 -8.222656 23.863281 -8.339844 L 18.683594 -11.304688 L 9.550781 4.640625 C 9.445312 4.820312 9.304688 4.9375 9.117188 4.988281 C 8.933594 5.039062 8.742188 5.007812 8.542969 4.890625 Z M 7.132812 4.085938 "/></g></g></g><g fill="#ffffff" fill-opacity="1"><g transform="translate(143.883896, 310.502157)"><g><path d="M 10.128906 3.121094 C 8.402344 2.644531 7.007812 1.941406 5.945312 1.011719 C 4.882812 0.078125 4.191406 -1.09375 3.871094 -2.511719 C 3.550781 -3.929688 3.605469 -5.585938 4.042969 -7.476562 C 4.265625 -8.363281 4.492188 -9.214844 4.714844 -10.027344 C 4.941406 -10.84375 5.183594 -11.6875 5.449219 -12.566406 C 6.039062 -14.390625 6.851562 -15.824219 7.886719 -16.871094 C 8.917969 -17.914062 10.136719 -18.570312 11.542969 -18.84375 C 12.945312 -19.113281 14.472656 -19.023438 16.117188 -18.566406 C 17.746094 -18.117188 19.089844 -17.417969 20.15625 -16.464844 C 21.222656 -15.507812 21.9375 -14.316406 22.300781 -12.890625 C 22.660156 -11.460938 22.617188 -9.8125 22.167969 -7.949219 C 21.964844 -7.054688 21.75 -6.199219 21.523438 -5.386719 C 21.300781 -4.574219 21.046875 -3.730469 20.761719 -2.859375 C 20.183594 -1.007812 19.390625 0.441406 18.375 1.492188 C 17.363281 2.542969 16.160156 3.195312 14.773438 3.449219 C 13.382812 3.703125 11.835938 3.59375 10.128906 3.121094 Z M 10.835938 0.5625 C 12.363281 0.984375 13.738281 0.867188 14.96875 0.210938 C 16.199219 -0.445312 17.136719 -1.792969 17.789062 -3.839844 C 18.078125 -4.734375 18.324219 -5.535156 18.519531 -6.25 C 18.71875 -6.960938 18.917969 -7.765625 19.121094 -8.660156 C 19.464844 -10.058594 19.519531 -11.253906 19.285156 -12.246094 C 19.050781 -13.238281 18.597656 -14.046875 17.925781 -14.664062 C 17.253906 -15.28125 16.414062 -15.730469 15.410156 -16.007812 C 14.40625 -16.285156 13.457031 -16.332031 12.5625 -16.144531 C 11.671875 -15.960938 10.867188 -15.5 10.15625 -14.765625 C 9.445312 -14.035156 8.871094 -12.984375 8.425781 -11.613281 C 8.164062 -10.734375 7.933594 -9.941406 7.734375 -9.226562 C 7.539062 -8.515625 7.324219 -7.703125 7.097656 -6.792969 C 6.605469 -4.703125 6.722656 -3.058594 7.453125 -1.863281 C 8.183594 -0.667969 9.308594 0.140625 10.835938 0.5625 Z M 10.835938 0.5625 "/></g></g></g><g fill="#ffffff" fill-opacity="1"><g transform="translate(176.444807, 317.825179)"><g><path d="M 10.6875 0.367188 C 8.832031 0.359375 7.265625 0.0078125 5.988281 -0.6875 C 4.710938 -1.382812 3.738281 -2.355469 3.066406 -3.609375 C 2.394531 -4.863281 2.023438 -6.332031 1.949219 -8.023438 C 1.933594 -8.9375 1.925781 -9.914062 1.933594 -10.945312 C 1.9375 -11.976562 1.953125 -12.960938 1.980469 -13.898438 C 2.070312 -15.582031 2.457031 -17.046875 3.140625 -18.28125 C 3.824219 -19.519531 4.816406 -20.472656 6.109375 -21.140625 C 7.40625 -21.8125 8.96875 -22.140625 10.804688 -22.132812 C 12.261719 -22.125 13.53125 -21.910156 14.613281 -21.488281 C 15.695312 -21.066406 16.582031 -20.535156 17.277344 -19.894531 C 17.972656 -19.257812 18.488281 -18.59375 18.828125 -17.902344 C 19.167969 -17.214844 19.347656 -16.609375 19.367188 -16.085938 C 19.386719 -15.898438 19.332031 -15.75 19.207031 -15.636719 C 19.082031 -15.519531 18.914062 -15.464844 18.707031 -15.464844 L 16.863281 -15.476562 C 16.65625 -15.476562 16.503906 -15.519531 16.410156 -15.601562 C 16.316406 -15.6875 16.230469 -15.832031 16.148438 -16.042969 C 15.960938 -16.585938 15.65625 -17.117188 15.234375 -17.640625 C 14.808594 -18.164062 14.238281 -18.597656 13.519531 -18.945312 C 12.804688 -19.292969 11.894531 -19.46875 10.789062 -19.476562 C 9.121094 -19.484375 7.78125 -19.042969 6.765625 -18.152344 C 5.75 -17.261719 5.195312 -15.785156 5.101562 -13.722656 C 5.03125 -11.871094 5.019531 -10.015625 5.074219 -8.160156 C 5.148438 -6.078125 5.691406 -4.578125 6.707031 -3.667969 C 7.722656 -2.757812 9.054688 -2.296875 10.699219 -2.289062 C 11.804688 -2.28125 12.789062 -2.484375 13.65625 -2.898438 C 14.523438 -3.308594 15.207031 -3.9375 15.714844 -4.777344 C 16.21875 -5.617188 16.472656 -6.695312 16.480469 -8.007812 L 16.488281 -9.320312 L 11.800781 -9.34375 C 11.589844 -9.347656 11.417969 -9.414062 11.285156 -9.550781 C 11.148438 -9.6875 11.082031 -9.871094 11.085938 -10.097656 L 11.089844 -11.097656 C 11.089844 -11.328125 11.160156 -11.511719 11.296875 -11.644531 C 11.433594 -11.78125 11.605469 -11.847656 11.8125 -11.84375 L 18.875 -11.808594 C 19.105469 -11.808594 19.28125 -11.738281 19.40625 -11.601562 C 19.53125 -11.464844 19.589844 -11.285156 19.589844 -11.054688 L 19.574219 -8.054688 C 19.566406 -6.347656 19.207031 -4.859375 18.503906 -3.589844 C 17.800781 -2.324219 16.777344 -1.34375 15.441406 -0.652344 C 14.105469 0.0351562 12.519531 0.378906 10.6875 0.367188 Z M 10.6875 0.367188 "/></g></g></g><g fill="#ffffff" fill-opacity="1"><g transform="translate(209.876449, 316.349794)"><g><path d="M 3.324219 -0.871094 C 3.105469 -0.8125 2.914062 -0.832031 2.761719 -0.933594 C 2.605469 -1.03125 2.5 -1.183594 2.449219 -1.382812 L -2.722656 -21.125 C -2.78125 -21.347656 -2.765625 -21.539062 -2.679688 -21.703125 C -2.59375 -21.863281 -2.4375 -21.976562 -2.214844 -22.03125 L 5.160156 -23.964844 C 7.4375 -24.5625 9.382812 -24.5 10.992188 -23.78125 C 12.601562 -23.058594 13.679688 -21.652344 14.230469 -19.554688 C 14.636719 -18.003906 14.578125 -16.636719 14.058594 -15.457031 C 13.539062 -14.277344 12.664062 -13.320312 11.433594 -12.589844 L 18.195312 -5.765625 C 18.289062 -5.660156 18.347656 -5.558594 18.375 -5.457031 C 18.417969 -5.296875 18.386719 -5.136719 18.289062 -4.984375 C 18.1875 -4.828125 18.058594 -4.730469 17.898438 -4.6875 L 16.445312 -4.308594 C 16.101562 -4.21875 15.828125 -4.242188 15.617188 -4.382812 C 15.410156 -4.519531 15.222656 -4.664062 15.054688 -4.8125 L 8.660156 -11.34375 L 3.367188 -9.960938 L 5.410156 -2.160156 C 5.464844 -1.957031 5.441406 -1.773438 5.34375 -1.609375 C 5.25 -1.445312 5.089844 -1.332031 4.867188 -1.273438 Z M 2.695312 -12.53125 L 7.683594 -13.835938 C 9.195312 -14.230469 10.242188 -14.84375 10.820312 -15.675781 C 11.398438 -16.503906 11.527344 -17.542969 11.199219 -18.792969 C 10.875 -20.023438 10.261719 -20.863281 9.359375 -21.316406 C 8.453125 -21.769531 7.234375 -21.792969 5.703125 -21.394531 L 0.714844 -20.085938 Z M 2.695312 -12.53125 "/></g></g></g><g fill="#ffffff" fill-opacity="1"><g transform="translate(241.026389, 306.584579)"><g><path d="M 1.085938 -0.617188 C 0.941406 -0.535156 0.785156 -0.515625 0.613281 -0.5625 C 0.445312 -0.609375 0.316406 -0.707031 0.234375 -0.851562 C 0.183594 -0.941406 0.136719 -1.046875 0.09375 -1.167969 L -3.140625 -22.578125 C -3.171875 -22.800781 -3.15625 -23 -3.089844 -23.183594 C -3.023438 -23.363281 -2.863281 -23.523438 -2.609375 -23.667969 L -0.761719 -24.71875 C -0.507812 -24.863281 -0.289062 -24.914062 -0.0976562 -24.878906 C 0.0898438 -24.839844 0.269531 -24.753906 0.445312 -24.613281 L 17.136719 -10.835938 C 17.234375 -10.746094 17.308594 -10.65625 17.359375 -10.566406 C 17.441406 -10.421875 17.460938 -10.261719 17.414062 -10.09375 C 17.367188 -9.921875 17.269531 -9.796875 17.125 -9.714844 L 15.738281 -8.925781 C 15.519531 -8.804688 15.332031 -8.769531 15.171875 -8.820312 C 15.007812 -8.871094 14.886719 -8.933594 14.796875 -9.003906 L 11.113281 -12.015625 L 2.195312 -6.957031 L 2.890625 -2.25 C 2.925781 -2.148438 2.917969 -2.015625 2.871094 -1.84375 C 2.824219 -1.671875 2.691406 -1.527344 2.472656 -1.402344 Z M 1.660156 -9.742188 L 9 -13.90625 L -0.144531 -21.476562 Z M 1.660156 -9.742188 "/></g></g></g><g fill="#ffffff" fill-opacity="1"><g transform="translate(268.970128, 288.866242)"><g><path d="M 2.457031 -2.402344 C 2.292969 -2.242188 2.121094 -2.167969 1.9375 -2.175781 C 1.753906 -2.1875 1.585938 -2.265625 1.441406 -2.414062 L -12.824219 -17.007812 C -12.984375 -17.171875 -13.066406 -17.34375 -13.074219 -17.527344 C -13.078125 -17.714844 -13 -17.886719 -12.835938 -18.046875 L -7.160156 -23.59375 C -6.054688 -24.671875 -4.925781 -25.429688 -3.761719 -25.867188 C -2.601562 -26.300781 -1.453125 -26.382812 -0.3125 -26.113281 C 0.828125 -25.84375 1.914062 -25.179688 2.945312 -24.121094 C 3.980469 -23.0625 4.617188 -21.964844 4.855469 -20.828125 C 5.09375 -19.691406 4.980469 -18.546875 4.515625 -17.394531 C 4.054688 -16.246094 3.273438 -15.128906 2.167969 -14.054688 L -1.785156 -10.1875 L 3.675781 -4.597656 C 3.820312 -4.449219 3.894531 -4.28125 3.890625 -4.089844 C 3.890625 -3.898438 3.804688 -3.722656 3.640625 -3.5625 Z M -3.644531 -12.042969 L 0.222656 -15.820312 C 1.324219 -16.898438 1.910156 -17.953125 1.984375 -18.984375 C 2.054688 -20.011719 1.628906 -21 0.710938 -21.9375 C -0.191406 -22.859375 -1.15625 -23.3125 -2.191406 -23.296875 C -3.222656 -23.277344 -4.304688 -22.714844 -5.433594 -21.609375 L -9.300781 -17.828125 Z M -3.644531 -12.042969 "/></g></g></g><g fill="#ffffff" fill-opacity="1"><g transform="translate(291.008061, 265.263252)"><g><path d="M 1.746094 -2.960938 C 1.628906 -2.765625 1.480469 -2.644531 1.300781 -2.605469 C 1.121094 -2.566406 0.941406 -2.601562 0.761719 -2.707031 L -16.816406 -13.070312 C -17.015625 -13.1875 -17.140625 -13.335938 -17.195312 -13.511719 C -17.246094 -13.6875 -17.214844 -13.875 -17.097656 -14.070312 L -16.289062 -15.445312 C -16.171875 -15.640625 -16.023438 -15.765625 -15.835938 -15.8125 C -15.652344 -15.859375 -15.460938 -15.824219 -15.261719 -15.710938 L -7.832031 -11.328125 L -2.371094 -20.589844 L -9.800781 -24.96875 C -10 -25.085938 -10.121094 -25.238281 -10.171875 -25.421875 C -10.21875 -25.609375 -10.1875 -25.789062 -10.082031 -25.96875 L -9.273438 -27.34375 C -9.15625 -27.539062 -9.007812 -27.664062 -8.820312 -27.710938 C -8.636719 -27.757812 -8.445312 -27.726562 -8.246094 -27.609375 L 9.332031 -17.246094 C 9.511719 -17.136719 9.625 -16.992188 9.671875 -16.808594 C 9.722656 -16.621094 9.6875 -16.429688 9.570312 -16.234375 L 8.761719 -14.859375 C 8.65625 -14.679688 8.507812 -14.566406 8.324219 -14.519531 C 8.140625 -14.472656 7.957031 -14.5 7.777344 -14.605469 L 0.0507812 -19.160156 L -5.410156 -9.902344 L 2.316406 -5.34375 C 2.496094 -5.238281 2.609375 -5.09375 2.65625 -4.910156 C 2.707031 -4.722656 2.671875 -4.53125 2.554688 -4.335938 Z M 1.746094 -2.960938 "/></g></g></g><g fill="#ffffff" fill-opacity="1"><g transform="translate(307.003525, 234.672249)"><g><path d="M 2.457031 -8.949219 C 2.402344 -8.75 2.292969 -8.601562 2.125 -8.507812 C 1.960938 -8.410156 1.777344 -8.390625 1.574219 -8.449219 L -5.539062 -10.402344 L -19.828125 -6.515625 C -19.894531 -6.511719 -19.957031 -6.507812 -20.023438 -6.503906 C -20.089844 -6.5 -20.164062 -6.511719 -20.242188 -6.53125 C -20.40625 -6.578125 -20.527344 -6.675781 -20.617188 -6.828125 C -20.703125 -6.984375 -20.726562 -7.140625 -20.679688 -7.300781 L -20.25 -8.867188 C -20.199219 -9.046875 -20.113281 -9.195312 -19.980469 -9.3125 C -19.851562 -9.429688 -19.699219 -9.496094 -19.523438 -9.511719 L -8.144531 -12.707031 L -16.292969 -21.261719 C -16.429688 -21.40625 -16.523438 -21.558594 -16.578125 -21.714844 C -16.632812 -21.867188 -16.632812 -22.035156 -16.582031 -22.21875 L -16.160156 -23.753906 C -16.113281 -23.933594 -16.011719 -24.070312 -15.855469 -24.15625 C -15.703125 -24.246094 -15.546875 -24.265625 -15.386719 -24.222656 C -15.304688 -24.199219 -15.238281 -24.171875 -15.183594 -24.132812 C -15.128906 -24.097656 -15.074219 -24.050781 -15.027344 -23.992188 L -4.71875 -13.382812 L 2.394531 -11.429688 C 2.59375 -11.375 2.742188 -11.265625 2.835938 -11.097656 C 2.933594 -10.933594 2.949219 -10.738281 2.890625 -10.515625 Z M 2.457031 -8.949219 "/></g></g></g><path fill="#ebc634" d="M 205.695312 164.964844 C 205.53125 165.0625 205.367188 165.164062 205.203125 165.265625 C 205.71875 166.09375 206.238281 166.925781 206.753906 167.757812 C 206.917969 167.65625 207.078125 167.558594 207.238281 167.460938 C 206.722656 166.628906 206.210938 165.796875 205.695312 164.964844 Z M 157.03125 194.519531 C 157.21875 194.410156 157.410156 194.300781 157.597656 194.195312 C 157.332031 192.796875 157.0625 191.398438 156.796875 190 C 156.609375 190.042969 156.421875 190.082031 156.234375 190.125 C 156.5 191.589844 156.765625 193.054688 157.03125 194.519531 Z M 207.625 168.933594 C 207.390625 169 207.242188 169.222656 207.265625 169.457031 C 207.433594 171.101562 207.597656 172.746094 209.53125 173.890625 L 208.226562 169.269531 C 208.15625 169.011719 207.886719 168.859375 207.625 168.933594 Z M 197.519531 178.964844 C 194.011719 178.382812 191.824219 179.757812 189.960938 181.929688 C 189.015625 183.03125 188.976562 184.070312 189.644531 185.332031 C 191.535156 188.90625 196.347656 191.652344 200.328125 191.378906 C 202.328125 191.238281 203.789062 190.308594 204.53125 188.457031 C 206.488281 183.566406 207.683594 178.753906 206.003906 173.316406 C 204.871094 169.636719 203.691406 166.488281 200.71875 163.796875 C 197.800781 161.15625 194.617188 160.289062 190.941406 160.085938 C 186.402344 159.832031 182.40625 161.398438 178.277344 163.058594 C 172.488281 165.386719 168.964844 169.171875 168.199219 175.398438 C 167.664062 179.742188 167.09375 184.082031 166.6875 188.4375 C 166.277344 192.820312 168.078125 196.835938 169.097656 200.96875 C 169.527344 202.707031 170.324219 204.363281 171 206.035156 C 172.234375 209.101562 173.75 211.980469 176.28125 214.226562 C 176.976562 214.847656 177.480469 215.691406 178.070312 216.433594 C 177.90625 216.65625 177.742188 216.875 177.578125 217.097656 C 176.582031 216.515625 175.511719 216.035156 174.601562 215.34375 C 170.109375 211.925781 165.660156 208.449219 161.191406 205 C 157.804688 202.382812 156.015625 198.691406 154.871094 194.765625 C 153.183594 188.988281 153.121094 182.957031 152.933594 176.992188 C 152.742188 170.839844 154.863281 165.125 157.539062 159.789062 C 158.839844 157.199219 161.476562 155.140625 163.84375 153.265625 C 167.394531 150.453125 171.714844 148.945312 175.890625 147.335938 C 182.210938 144.902344 188.761719 145.308594 195.238281 146.648438 C 198.097656 147.238281 201.011719 148 203.613281 149.269531 C 207.828125 151.332031 211.738281 153.882812 214.679688 157.785156 C 218.511719 162.871094 221.609375 168.3125 223.546875 174.363281 C 225.585938 180.734375 226.21875 187.359375 224.273438 193.738281 C 223.046875 197.75 221.488281 202.011719 217.5625 204.613281 C 215.882812 205.722656 214.480469 207.285156 212.75 208.285156 C 207.714844 211.203125 202.300781 211.773438 196.6875 210.296875 C 194.609375 209.75 192.550781 209.117188 190.484375 208.523438 C 188.972656 208.085938 187.535156 207.679688 186.539062 206.183594 C 186.042969 205.4375 184.863281 205.140625 183.96875 204.683594 C 182.152344 203.746094 180.667969 202.644531 180.066406 200.460938 C 178.820312 195.949219 176.15625 191.859375 176.019531 187.003906 C 175.878906 181.839844 177.664062 177.230469 180.1875 172.875 C 181.105469 171.289062 182.433594 170.066406 184.484375 169.945312 C 186.492188 169.824219 188.484375 169.496094 190.492188 169.402344 C 191.109375 169.375 191.859375 169.671875 192.355469 170.058594 C 195.074219 172.1875 196.773438 174.945312 197.519531 178.964844 " fill-opacity="1" fill-rule="nonzero"/><path fill="#ebc634" d="M 232.117188 163.898438 C 230.773438 161.554688 229.609375 159.527344 228.507812 157.605469 C 228.746094 157.074219 228.816406 156.699219 229.035156 156.46875 C 231.234375 154.164062 233.789062 152.226562 235.636719 149.550781 C 236.515625 148.269531 238.039062 147.78125 239.667969 147.382812 C 241.4375 146.945312 243.023438 145.714844 244.660156 144.777344 C 245.214844 144.460938 245.648438 143.679688 246.183594 143.628906 C 249.414062 143.335938 252.660156 143.109375 255.898438 143.09375 C 256.402344 143.09375 257.257812 144.261719 257.359375 144.972656 C 257.855469 148.398438 257.058594 151.789062 254.402344 153.882812 C 248.445312 158.578125 241.992188 162.535156 234.367188 164.042969 C 233.929688 164.128906 233.472656 164.136719 233.027344 164.113281 C 232.695312 164.09375 232.371094 163.960938 232.117188 163.898438 " fill-opacity="1" fill-rule="nonzero"/><g clip-path="url(#6d24d3a119)"><path fill="#ebc634" d="M 203.515625 105.164062 C 204.65625 106.886719 205.546875 107.898438 206.042969 109.078125 C 206.675781 110.585938 207.242188 112.207031 207.382812 113.816406 C 207.9375 120.003906 206.492188 125.964844 205.023438 131.910156 C 204.777344 132.898438 204.515625 133.882812 204.207031 134.851562 C 203.222656 137.910156 202.375 138.445312 199.058594 138.175781 C 198.609375 138.136719 198.128906 138.027344 197.707031 138.128906 C 194.234375 138.976562 193.554688 137.621094 193.113281 134.421875 C 192.703125 131.414062 192.722656 128.324219 192.820312 125.277344 C 192.96875 120.558594 195.445312 116.652344 197.800781 112.804688 C 199.425781 110.152344 201.523438 107.792969 203.515625 105.164062 " fill-opacity="1" fill-rule="nonzero"/></g><path fill="#ebc634" d="M 212.492188 220.152344 C 215.019531 218.367188 216.664062 218.648438 218.902344 220.261719 C 223.496094 223.578125 226.746094 227.652344 228.519531 232.992188 C 229.726562 236.636719 231.125 240.222656 232.171875 243.910156 C 232.820312 246.1875 232.402344 246.582031 230.199219 247.414062 C 228.765625 247.957031 227.148438 249.214844 225.960938 248.886719 C 224.730469 248.546875 223.980469 246.625 222.917969 245.492188 C 221.3125 243.777344 219.199219 242.394531 218.039062 240.433594 C 214.363281 234.214844 212.144531 227.507812 212.492188 220.152344 " fill-opacity="1" fill-rule="nonzero"/><g clip-path="url(#92ab80695c)"><path fill="#ebc634" d="M 232.5 185.753906 C 232.9375 184.445312 233.386719 183.613281 233.472656 182.742188 C 233.789062 179.4375 235.996094 178.074219 238.839844 177.496094 C 245.300781 176.171875 251.703125 176.566406 257.871094 178.886719 C 259.585938 179.535156 261.125 180.859375 262.503906 182.132812 C 263.855469 183.375 263.511719 185.28125 261.953125 186.515625 C 258.964844 188.875 255.652344 190.378906 251.78125 190.679688 C 246.503906 191.089844 241.367188 190.746094 236.546875 188.398438 C 235.089844 187.683594 233.800781 186.617188 232.5 185.753906 " fill-opacity="1" fill-rule="nonzero"/></g><path fill="#ebc634" d="M 164.949219 108.601562 C 168.328125 110.011719 171.0625 111.9375 173.144531 114.632812 C 174.792969 116.765625 176.132812 119.132812 177.609375 121.394531 C 180.332031 125.574219 180.925781 130.238281 180.449219 135.046875 C 180.285156 136.703125 179.433594 138.292969 178.761719 140.320312 C 177.664062 139.878906 176.296875 139.617188 175.296875 138.867188 C 166.859375 132.566406 162.832031 123.972656 162.511719 113.546875 C 162.492188 112.949219 162.773438 112.285156 163.085938 111.75 C 163.402344 111.195312 163.992188 110.804688 164.34375 110.265625 C 164.617188 109.835938 164.707031 109.289062 164.949219 108.601562 " fill-opacity="1" fill-rule="nonzero"/><path fill="#ebc634" d="M 228.617188 205.898438 C 230.199219 204.550781 231.570312 203.109375 233.210938 202.101562 C 233.980469 201.628906 235.390625 201.664062 236.289062 202.023438 C 241.882812 204.261719 246.632812 207.667969 250.894531 212.011719 C 253.355469 214.515625 254.542969 217.25 255.28125 220.449219 C 255.625 221.941406 255.199219 222.828125 253.664062 223.175781 C 249.605469 224.09375 245.667969 223.382812 242.308594 221.21875 C 236.746094 217.628906 232.269531 212.84375 229.015625 207.003906 C 228.804688 206.625 228.714844 206.175781 228.617188 205.898438 " fill-opacity="1" fill-rule="nonzero"/><path fill="#ebc634" d="M 213.3125 141.039062 C 213.8125 139.570312 214.003906 138.40625 214.566406 137.464844 C 216.183594 134.761719 217.804688 132.039062 219.691406 129.523438 C 221.785156 126.730469 224.125 124.109375 226.457031 121.503906 C 227.6875 120.128906 229.152344 119.007812 231.160156 120.277344 C 231.332031 120.386719 231.605469 120.324219 231.824219 120.378906 C 236.425781 121.539062 237.105469 122.9375 234.625 127.199219 C 232.304688 131.195312 229.765625 135.078125 227.136719 138.878906 C 224.972656 142.003906 222.585938 144.972656 220.210938 147.941406 C 219.085938 149.351562 217.667969 149.554688 216.832031 148.199219 C 215.402344 145.882812 214.398438 143.304688 213.3125 141.039062 " fill-opacity="1" fill-rule="nonzero"/><path fill="#ebc634" d="M 134.9375 232.515625 C 131.703125 232.652344 131.183594 231.878906 131.445312 229.425781 C 131.675781 227.269531 132.601562 225.695312 134.058594 224.183594 C 137.261719 220.855469 140.21875 217.28125 143.511719 214.046875 C 145.09375 212.5 147.203125 211.484375 149.09375 210.257812 C 150.429688 209.386719 151.675781 209.703125 152.808594 210.683594 C 153.734375 211.488281 154.71875 212.25 155.53125 213.164062 C 156.886719 214.699219 156.375 216.578125 155.5 217.902344 C 153.460938 220.988281 151.386719 224.1875 148.71875 226.6875 C 144.746094 230.402344 139.652344 232.054688 134.9375 232.515625 " fill-opacity="1" fill-rule="nonzero"/><g clip-path="url(#ad83d27dfa)"><path fill="#ebc634" d="M 110.847656 154.816406 C 114.292969 150.804688 117.871094 149.582031 122.378906 151.484375 C 126.234375 153.113281 130.238281 154.390625 134.050781 156.105469 C 135.976562 156.96875 137.628906 158.445312 139.394531 159.667969 C 139.761719 159.921875 140.113281 160.234375 140.386719 160.585938 C 142.238281 162.980469 141.046875 166.308594 138.089844 166.472656 C 129.964844 166.925781 122.273438 165.628906 115.953125 159.921875 C 114.214844 158.351562 112.632812 156.609375 110.847656 154.816406 " fill-opacity="1" fill-rule="nonzero"/></g><path fill="#ebc634" d="M 195.070312 257.8125 C 193.476562 255.460938 192.050781 253.09375 191.546875 250.222656 C 191.253906 248.566406 190.703125 246.949219 190.21875 245.332031 C 188.105469 238.289062 189.65625 231.980469 193.984375 226.210938 C 194.695312 225.265625 195.324219 224.265625 196.117188 223.109375 C 199.269531 225.578125 200.691406 228.6875 200.945312 232.226562 C 201.15625 235.132812 200.976562 238.089844 200.738281 241.003906 C 200.363281 245.589844 200.34375 250.214844 198.691406 254.644531 C 198.011719 256.46875 197.019531 257.441406 195.070312 257.8125 " fill-opacity="1" fill-rule="nonzero"/><path fill="#ebc634" d="M 161.585938 255.410156 C 161.21875 254.273438 160.667969 253.171875 160.523438 252.015625 C 159.710938 245.574219 160.761719 239.425781 163.625 233.59375 C 163.824219 233.191406 164.015625 232.777344 164.234375 232.382812 C 167.046875 227.332031 167.652344 225.792969 174.726562 227.839844 C 176.089844 234.90625 173.984375 241.425781 170.984375 247.664062 C 169.261719 251.246094 165.488281 254.003906 161.585938 255.410156 " fill-opacity="1" fill-rule="nonzero"/><path fill="#ebc634" d="M 139.515625 120.265625 C 140.515625 120.492188 141.507812 120.433594 142.082031 120.894531 C 147.21875 125.019531 152.039062 129.414062 154 136.050781 C 155.203125 140.121094 155.085938 144.230469 154.355469 148.347656 C 154.085938 149.886719 153.234375 150.34375 151.964844 149.503906 C 150.28125 148.390625 148.398438 147.304688 147.230469 145.734375 C 144.75 142.40625 142.285156 138.957031 140.535156 135.21875 C 138.394531 130.644531 138.320312 125.648438 139.515625 120.265625 " fill-opacity="1" fill-rule="nonzero"/><path fill="#ebc634" d="M 112.886719 197.042969 C 113.929688 195.796875 114.476562 194.796875 115.3125 194.210938 C 121.269531 190.035156 128.023438 187.988281 135.152344 187.027344 C 136.90625 186.792969 138.671875 186.648438 140.386719 186.464844 C 141.339844 189.046875 141.308594 191.273438 140.773438 193.589844 C 140.417969 195.132812 139.871094 196.128906 138.296875 196.855469 C 134.171875 198.769531 130.03125 200.550781 125.429688 200.777344 C 123.914062 200.851562 122.300781 200.675781 120.863281 200.210938 C 118.320312 199.386719 115.878906 198.253906 112.886719 197.042969 " fill-opacity="1" fill-rule="nonzero"/><g clip-path="url(#19328c3428)"><path fill="#ebc634" d="M 187.496094 84.492188 C 133.8125 84.492188 90.476562 127.828125 90.476562 181.511719 C 90.476562 235.195312 133.8125 278.53125 187.496094 278.53125 C 241.179688 278.53125 284.515625 235.195312 284.515625 181.511719 C 284.515625 127.828125 241.179688 84.492188 187.496094 84.492188 Z M 187.496094 269.90625 C 138.769531 269.90625 99.101562 230.238281 99.101562 181.511719 C 99.101562 132.785156 138.769531 93.117188 187.496094 93.117188 C 236.222656 93.117188 275.890625 132.785156 275.890625 181.511719 C 275.890625 230.238281 236.222656 269.90625 187.496094 269.90625 Z M 187.496094 269.90625 " fill-opacity="1" fill-rule="nonzero"/></g><g fill="#ffffff" fill-opacity="1"><g transform="translate(49.369665, 191.019828)"><g><path d="M 1.160156 0 C 1.085938 0 1.023438 -0.0234375 0.980469 -0.0703125 C 0.941406 -0.113281 0.917969 -0.171875 0.917969 -0.242188 L 0.917969 -7.136719 C 0.917969 -7.214844 0.941406 -7.277344 0.980469 -7.324219 C 1.023438 -7.367188 1.085938 -7.390625 1.160156 -7.390625 L 5.523438 -7.390625 C 5.601562 -7.390625 5.660156 -7.367188 5.703125 -7.324219 C 5.746094 -7.277344 5.765625 -7.214844 5.765625 -7.136719 L 5.765625 -6.738281 C 5.765625 -6.660156 5.746094 -6.601562 5.703125 -6.558594 C 5.660156 -6.515625 5.601562 -6.492188 5.523438 -6.492188 L 1.933594 -6.492188 L 1.933594 -4.179688 L 5.289062 -4.179688 C 5.367188 -4.179688 5.425781 -4.160156 5.46875 -4.113281 C 5.511719 -4.066406 5.53125 -4.003906 5.53125 -3.929688 L 5.53125 -3.539062 C 5.53125 -3.46875 5.511719 -3.410156 5.46875 -3.363281 C 5.425781 -3.316406 5.367188 -3.292969 5.289062 -3.292969 L 1.933594 -3.292969 L 1.933594 -0.898438 L 5.605469 -0.898438 C 5.683594 -0.898438 5.746094 -0.875 5.785156 -0.835938 C 5.828125 -0.792969 5.851562 -0.730469 5.851562 -0.65625 L 5.851562 -0.242188 C 5.851562 -0.171875 5.828125 -0.113281 5.785156 -0.0703125 C 5.746094 -0.0234375 5.683594 0 5.605469 0 Z M 1.160156 0 "/></g></g></g><g fill="#ffffff" fill-opacity="1"><g transform="translate(57.975708, 191.019828)"><g><path d="M 3.292969 0.105469 C 2.683594 0.105469 2.167969 0.0117188 1.753906 -0.179688 C 1.335938 -0.371094 1.019531 -0.613281 0.796875 -0.914062 C 0.574219 -1.210938 0.457031 -1.527344 0.445312 -1.859375 C 0.445312 -1.914062 0.464844 -1.964844 0.511719 -2.011719 C 0.558594 -2.058594 0.613281 -2.082031 0.675781 -2.082031 L 1.214844 -2.082031 C 1.296875 -2.082031 1.363281 -2.058594 1.40625 -2.015625 C 1.445312 -1.976562 1.476562 -1.925781 1.488281 -1.867188 C 1.53125 -1.699219 1.617188 -1.53125 1.753906 -1.367188 C 1.886719 -1.203125 2.078125 -1.066406 2.328125 -0.957031 C 2.578125 -0.847656 2.898438 -0.792969 3.292969 -0.792969 C 3.898438 -0.792969 4.34375 -0.898438 4.628906 -1.113281 C 4.914062 -1.328125 5.058594 -1.617188 5.058594 -1.976562 C 5.058594 -2.222656 4.980469 -2.417969 4.832031 -2.570312 C 4.679688 -2.722656 4.449219 -2.859375 4.140625 -2.976562 C 3.828125 -3.097656 3.429688 -3.226562 2.933594 -3.367188 C 2.421875 -3.515625 1.996094 -3.679688 1.65625 -3.855469 C 1.320312 -4.03125 1.066406 -4.25 0.902344 -4.507812 C 0.738281 -4.769531 0.65625 -5.101562 0.65625 -5.5 C 0.65625 -5.882812 0.757812 -6.222656 0.960938 -6.519531 C 1.164062 -6.820312 1.460938 -7.058594 1.847656 -7.234375 C 2.234375 -7.410156 2.699219 -7.496094 3.242188 -7.496094 C 3.679688 -7.496094 4.058594 -7.4375 4.386719 -7.324219 C 4.714844 -7.207031 4.988281 -7.050781 5.207031 -6.859375 C 5.425781 -6.664062 5.589844 -6.457031 5.703125 -6.234375 C 5.816406 -6.011719 5.875 -5.796875 5.882812 -5.585938 C 5.882812 -5.535156 5.863281 -5.488281 5.828125 -5.445312 C 5.792969 -5.398438 5.738281 -5.375 5.660156 -5.375 L 5.101562 -5.375 C 5.050781 -5.375 5 -5.390625 4.945312 -5.417969 C 4.894531 -5.445312 4.855469 -5.496094 4.824219 -5.574219 C 4.785156 -5.863281 4.621094 -6.105469 4.339844 -6.304688 C 4.058594 -6.5 3.691406 -6.601562 3.242188 -6.601562 C 2.785156 -6.601562 2.414062 -6.511719 2.128906 -6.335938 C 1.84375 -6.160156 1.699219 -5.886719 1.699219 -5.511719 C 1.699219 -5.273438 1.765625 -5.074219 1.902344 -4.914062 C 2.035156 -4.757812 2.246094 -4.617188 2.535156 -4.5 C 2.824219 -4.378906 3.199219 -4.253906 3.664062 -4.117188 C 4.226562 -3.964844 4.6875 -3.800781 5.046875 -3.628906 C 5.40625 -3.453125 5.671875 -3.238281 5.84375 -2.984375 C 6.015625 -2.726562 6.101562 -2.398438 6.101562 -1.996094 C 6.101562 -1.550781 5.988281 -1.175781 5.753906 -0.859375 C 5.523438 -0.546875 5.195312 -0.308594 4.777344 -0.140625 C 4.359375 0.0234375 3.863281 0.105469 3.292969 0.105469 Z M 3.292969 0.105469 "/></g></g></g><g fill="#ffffff" fill-opacity="1"><g transform="translate(66.750703, 191.019828)"><g><path d="M 2.777344 0 C 2.707031 0 2.648438 -0.0234375 2.601562 -0.0703125 C 2.558594 -0.113281 2.535156 -0.171875 2.535156 -0.242188 L 2.535156 -6.453125 L 0.507812 -6.453125 C 0.4375 -6.453125 0.378906 -6.476562 0.332031 -6.519531 C 0.285156 -6.566406 0.265625 -6.625 0.265625 -6.695312 L 0.265625 -7.136719 C 0.265625 -7.214844 0.285156 -7.277344 0.332031 -7.324219 C 0.378906 -7.367188 0.4375 -7.390625 0.507812 -7.390625 L 5.597656 -7.390625 C 5.675781 -7.390625 5.734375 -7.367188 5.78125 -7.324219 C 5.828125 -7.277344 5.851562 -7.214844 5.851562 -7.136719 L 5.851562 -6.695312 C 5.851562 -6.625 5.828125 -6.566406 5.78125 -6.519531 C 5.734375 -6.476562 5.675781 -6.453125 5.597656 -6.453125 L 3.578125 -6.453125 L 3.578125 -0.242188 C 3.578125 -0.171875 3.558594 -0.113281 3.511719 -0.0703125 C 3.464844 -0.0234375 3.402344 0 3.328125 0 Z M 2.777344 0 "/></g></g></g><g fill="#ffffff" fill-opacity="1"><g transform="translate(75.071634, 191.019828)"><g><path d="M 1.160156 0 C 1.085938 0 1.023438 -0.0234375 0.980469 -0.0703125 C 0.941406 -0.113281 0.917969 -0.171875 0.917969 -0.242188 L 0.917969 -7.136719 C 0.917969 -7.214844 0.941406 -7.277344 0.980469 -7.324219 C 1.023438 -7.367188 1.085938 -7.390625 1.160156 -7.390625 L 3.558594 -7.390625 C 4.285156 -7.390625 4.867188 -7.28125 5.3125 -7.0625 C 5.753906 -6.847656 6.078125 -6.523438 6.28125 -6.097656 C 6.488281 -5.671875 6.59375 -5.148438 6.601562 -4.53125 C 6.605469 -4.214844 6.609375 -3.933594 6.609375 -3.695312 C 6.609375 -3.457031 6.605469 -3.183594 6.601562 -2.871094 C 6.585938 -2.222656 6.476562 -1.6875 6.277344 -1.261719 C 6.078125 -0.835938 5.761719 -0.519531 5.328125 -0.3125 C 4.894531 -0.105469 4.324219 0 3.613281 0 Z M 1.953125 -0.898438 L 3.558594 -0.898438 C 4.042969 -0.898438 4.429688 -0.964844 4.71875 -1.097656 C 5.007812 -1.230469 5.21875 -1.445312 5.347656 -1.742188 C 5.480469 -2.039062 5.546875 -2.429688 5.554688 -2.914062 C 5.570312 -3.125 5.574219 -3.308594 5.574219 -3.46875 C 5.574219 -3.628906 5.574219 -3.785156 5.574219 -3.945312 C 5.574219 -4.101562 5.570312 -4.285156 5.554688 -4.488281 C 5.539062 -5.171875 5.378906 -5.675781 5.070312 -6.003906 C 4.757812 -6.332031 4.238281 -6.492188 3.503906 -6.492188 L 1.953125 -6.492188 Z M 1.953125 -0.898438 "/></g></g></g><g fill="#ffffff" fill-opacity="1"><g transform="translate(293.092514, 191.019828)"><g><path d="M 0.761719 0 C 0.691406 0 0.632812 -0.0234375 0.585938 -0.0703125 C 0.539062 -0.113281 0.515625 -0.171875 0.515625 -0.242188 L 0.515625 -0.582031 C 0.515625 -0.644531 0.535156 -0.714844 0.570312 -0.792969 C 0.605469 -0.871094 0.675781 -0.953125 0.78125 -1.046875 L 3.019531 -3.285156 C 3.378906 -3.585938 3.664062 -3.84375 3.871094 -4.058594 C 4.078125 -4.273438 4.226562 -4.480469 4.3125 -4.679688 C 4.402344 -4.875 4.445312 -5.078125 4.445312 -5.289062 C 4.445312 -5.691406 4.332031 -6.011719 4.109375 -6.246094 C 3.882812 -6.480469 3.546875 -6.601562 3.105469 -6.601562 C 2.824219 -6.601562 2.578125 -6.542969 2.375 -6.425781 C 2.171875 -6.308594 2.011719 -6.152344 1.902344 -5.949219 C 1.789062 -5.75 1.710938 -5.523438 1.667969 -5.269531 C 1.65625 -5.175781 1.617188 -5.113281 1.558594 -5.078125 C 1.496094 -5.042969 1.441406 -5.027344 1.394531 -5.027344 L 0.84375 -5.027344 C 0.78125 -5.027344 0.730469 -5.046875 0.6875 -5.085938 C 0.644531 -5.125 0.621094 -5.171875 0.621094 -5.226562 C 0.628906 -5.496094 0.6875 -5.765625 0.792969 -6.035156 C 0.898438 -6.304688 1.054688 -6.550781 1.261719 -6.773438 C 1.46875 -6.996094 1.726562 -7.171875 2.03125 -7.308594 C 2.339844 -7.441406 2.695312 -7.507812 3.105469 -7.507812 C 3.660156 -7.507812 4.117188 -7.40625 4.472656 -7.207031 C 4.828125 -7.007812 5.089844 -6.742188 5.257812 -6.410156 C 5.425781 -6.078125 5.511719 -5.714844 5.511719 -5.320312 C 5.511719 -5.011719 5.460938 -4.730469 5.355469 -4.472656 C 5.25 -4.214844 5.09375 -3.964844 4.894531 -3.722656 C 4.695312 -3.480469 4.445312 -3.230469 4.148438 -2.976562 L 2.121094 -0.917969 L 5.417969 -0.917969 C 5.496094 -0.917969 5.554688 -0.898438 5.601562 -0.855469 C 5.648438 -0.8125 5.671875 -0.753906 5.671875 -0.675781 L 5.671875 -0.242188 C 5.671875 -0.171875 5.648438 -0.113281 5.601562 -0.0703125 C 5.554688 -0.0234375 5.496094 0 5.417969 0 Z M 0.761719 0 "/></g></g></g><g fill="#ffffff" fill-opacity="1"><g transform="translate(301.497928, 191.019828)"><g><path d="M 3.347656 0.105469 C 2.863281 0.105469 2.453125 0.03125 2.117188 -0.121094 C 1.78125 -0.273438 1.511719 -0.480469 1.296875 -0.75 C 1.085938 -1.015625 0.933594 -1.324219 0.839844 -1.667969 C 0.746094 -2.011719 0.691406 -2.378906 0.675781 -2.765625 C 0.667969 -2.957031 0.664062 -3.15625 0.660156 -3.367188 C 0.65625 -3.578125 0.65625 -3.792969 0.660156 -4.011719 C 0.664062 -4.230469 0.667969 -4.4375 0.675781 -4.636719 C 0.683594 -5.023438 0.738281 -5.390625 0.839844 -5.734375 C 0.941406 -6.078125 1.097656 -6.382812 1.308594 -6.648438 C 1.519531 -6.910156 1.792969 -7.117188 2.128906 -7.269531 C 2.460938 -7.421875 2.867188 -7.496094 3.347656 -7.496094 C 3.832031 -7.496094 4.242188 -7.421875 4.578125 -7.269531 C 4.910156 -7.117188 5.183594 -6.910156 5.394531 -6.648438 C 5.605469 -6.382812 5.765625 -6.078125 5.867188 -5.734375 C 5.96875 -5.390625 6.023438 -5.023438 6.03125 -4.636719 C 6.035156 -4.4375 6.042969 -4.230469 6.046875 -4.011719 C 6.050781 -3.792969 6.050781 -3.578125 6.046875 -3.367188 C 6.042969 -3.15625 6.035156 -2.957031 6.03125 -2.765625 C 6.023438 -2.378906 5.96875 -2.011719 5.867188 -1.667969 C 5.765625 -1.324219 5.609375 -1.015625 5.402344 -0.75 C 5.195312 -0.480469 4.921875 -0.273438 4.589844 -0.121094 C 4.253906 0.03125 3.839844 0.105469 3.347656 0.105469 Z M 3.347656 -0.800781 C 3.894531 -0.800781 4.304688 -0.980469 4.566406 -1.339844 C 4.832031 -1.699219 4.964844 -2.191406 4.972656 -2.820312 C 4.988281 -3.023438 4.996094 -3.222656 4.996094 -3.414062 C 4.996094 -3.609375 4.996094 -3.804688 4.996094 -3.996094 C 4.996094 -4.191406 4.988281 -4.382812 4.972656 -4.574219 C 4.964844 -5.183594 4.832031 -5.675781 4.566406 -6.046875 C 4.304688 -6.414062 3.894531 -6.601562 3.347656 -6.601562 C 2.804688 -6.601562 2.402344 -6.414062 2.136719 -6.046875 C 1.875 -5.675781 1.734375 -5.183594 1.722656 -4.574219 C 1.722656 -4.382812 1.71875 -4.191406 1.714844 -3.996094 C 1.710938 -3.804688 1.710938 -3.609375 1.714844 -3.414062 C 1.71875 -3.222656 1.722656 -3.023438 1.722656 -2.820312 C 1.734375 -2.191406 1.875 -1.699219 2.144531 -1.339844 C 2.410156 -0.980469 2.8125 -0.800781 3.347656 -0.800781 Z M 3.347656 -0.800781 "/></g></g></g><g fill="#ffffff" fill-opacity="1"><g transform="translate(310.410203, 191.019828)"><g><path d="M 0.761719 0 C 0.691406 0 0.632812 -0.0234375 0.585938 -0.0703125 C 0.539062 -0.113281 0.515625 -0.171875 0.515625 -0.242188 L 0.515625 -0.582031 C 0.515625 -0.644531 0.535156 -0.714844 0.570312 -0.792969 C 0.605469 -0.871094 0.675781 -0.953125 0.78125 -1.046875 L 3.019531 -3.285156 C 3.378906 -3.585938 3.664062 -3.84375 3.871094 -4.058594 C 4.078125 -4.273438 4.226562 -4.480469 4.3125 -4.679688 C 4.402344 -4.875 4.445312 -5.078125 4.445312 -5.289062 C 4.445312 -5.691406 4.332031 -6.011719 4.109375 -6.246094 C 3.882812 -6.480469 3.546875 -6.601562 3.105469 -6.601562 C 2.824219 -6.601562 2.578125 -6.542969 2.375 -6.425781 C 2.171875 -6.308594 2.011719 -6.152344 1.902344 -5.949219 C 1.789062 -5.75 1.710938 -5.523438 1.667969 -5.269531 C 1.65625 -5.175781 1.617188 -5.113281 1.558594 -5.078125 C 1.496094 -5.042969 1.441406 -5.027344 1.394531 -5.027344 L 0.84375 -5.027344 C 0.78125 -5.027344 0.730469 -5.046875 0.6875 -5.085938 C 0.644531 -5.125 0.621094 -5.171875 0.621094 -5.226562 C 0.628906 -5.496094 0.6875 -5.765625 0.792969 -6.035156 C 0.898438 -6.304688 1.054688 -6.550781 1.261719 -6.773438 C 1.46875 -6.996094 1.726562 -7.171875 2.03125 -7.308594 C 2.339844 -7.441406 2.695312 -7.507812 3.105469 -7.507812 C 3.660156 -7.507812 4.117188 -7.40625 4.472656 -7.207031 C 4.828125 -7.007812 5.089844 -6.742188 5.257812 -6.410156 C 5.425781 -6.078125 5.511719 -5.714844 5.511719 -5.320312 C 5.511719 -5.011719 5.460938 -4.730469 5.355469 -4.472656 C 5.25 -4.214844 5.09375 -3.964844 4.894531 -3.722656 C 4.695312 -3.480469 4.445312 -3.230469 4.148438 -2.976562 L 2.121094 -0.917969 L 5.417969 -0.917969 C 5.496094 -0.917969 5.554688 -0.898438 5.601562 -0.855469 C 5.648438 -0.8125 5.671875 -0.753906 5.671875 -0.675781 L 5.671875 -0.242188 C 5.671875 -0.171875 5.648438 -0.113281 5.601562 -0.0703125 C 5.554688 -0.0234375 5.496094 0 5.417969 0 Z M 0.761719 0 "/></g></g></g><g fill="#ffffff" fill-opacity="1"><g transform="translate(318.815617, 191.019828)"><g><path d="M 3.148438 0.105469 C 2.703125 0.105469 2.316406 0.0507812 1.984375 -0.0585938 C 1.65625 -0.167969 1.375 -0.3125 1.152344 -0.496094 C 0.925781 -0.679688 0.753906 -0.882812 0.640625 -1.101562 C 0.523438 -1.324219 0.460938 -1.546875 0.453125 -1.773438 C 0.453125 -1.835938 0.476562 -1.886719 0.515625 -1.925781 C 0.558594 -1.964844 0.613281 -1.984375 0.675781 -1.984375 L 1.191406 -1.984375 C 1.257812 -1.984375 1.316406 -1.96875 1.367188 -1.9375 C 1.421875 -1.90625 1.460938 -1.84375 1.488281 -1.753906 C 1.558594 -1.5 1.679688 -1.300781 1.851562 -1.160156 C 2.027344 -1.019531 2.226562 -0.925781 2.457031 -0.871094 C 2.683594 -0.820312 2.914062 -0.792969 3.148438 -0.792969 C 3.632812 -0.792969 4.027344 -0.90625 4.328125 -1.140625 C 4.632812 -1.371094 4.785156 -1.714844 4.785156 -2.164062 C 4.785156 -2.621094 4.644531 -2.949219 4.371094 -3.148438 C 4.097656 -3.34375 3.71875 -3.441406 3.230469 -3.441406 L 2.226562 -3.441406 C 2.15625 -3.441406 2.097656 -3.464844 2.054688 -3.503906 C 2.007812 -3.546875 1.984375 -3.609375 1.984375 -3.683594 L 1.984375 -3.96875 C 1.984375 -4.035156 1.996094 -4.089844 2.023438 -4.132812 C 2.046875 -4.179688 2.074219 -4.21875 2.101562 -4.253906 L 4.148438 -6.492188 L 1.035156 -6.492188 C 0.964844 -6.492188 0.90625 -6.515625 0.859375 -6.558594 C 0.816406 -6.601562 0.792969 -6.660156 0.792969 -6.738281 L 0.792969 -7.136719 C 0.792969 -7.214844 0.816406 -7.277344 0.859375 -7.324219 C 0.90625 -7.367188 0.964844 -7.390625 1.035156 -7.390625 L 5.25 -7.390625 C 5.324219 -7.390625 5.386719 -7.367188 5.433594 -7.324219 C 5.480469 -7.277344 5.5 -7.214844 5.5 -7.136719 L 5.5 -6.757812 C 5.5 -6.707031 5.488281 -6.664062 5.464844 -6.625 C 5.441406 -6.585938 5.414062 -6.550781 5.386719 -6.515625 L 3.347656 -4.246094 L 3.515625 -4.234375 C 3.980469 -4.21875 4.386719 -4.136719 4.734375 -3.980469 C 5.085938 -3.824219 5.355469 -3.59375 5.550781 -3.289062 C 5.742188 -2.984375 5.839844 -2.597656 5.839844 -2.132812 C 5.839844 -1.660156 5.722656 -1.261719 5.492188 -0.929688 C 5.257812 -0.597656 4.941406 -0.34375 4.535156 -0.164062 C 4.128906 0.015625 3.667969 0.105469 3.148438 0.105469 Z M 3.148438 0.105469 "/></g></g></g><g clip-path="url(#f16c1e1368)"><path fill="#ebc634" d="M 187.445312 27.320312 C 98.84375 27.320312 27.320312 98.84375 27.320312 187.445312 C 27.320312 276.046875 98.84375 347.570312 187.445312 347.570312 C 276.046875 347.570312 347.570312 276.046875 347.570312 187.445312 C 347.570312 98.84375 276.046875 27.320312 187.445312 27.320312 Z M 187.445312 333.335938 C 107.027344 333.335938 41.554688 267.863281 41.554688 187.445312 C 41.554688 107.027344 107.027344 41.554688 187.445312 41.554688 C 267.863281 41.554688 333.335938 107.027344 333.335938 187.445312 C 333.335938 267.863281 267.863281 333.335938 187.445312 333.335938 Z M 187.445312 333.335938 " fill-opacity="1" fill-rule="nonzero"/></g></svg>